# xmcd
#
# Track frame offsets:
#	150
#	18436
#	32447
#	46824
#	61601
#	76306
#	90687
#	106308
#	120985
#	135891
#	154056
#	173151
#	188172
#	204335
#	217937
#	233712
#	248192
#	268536
#	283008
#	297667
#
# Disc length: 4184 seconds
#
# Revision: 0
# Processed by: cddbd v1.5.2PL0 Copyright (c) Steve Scherf et al.
# Submitted via: EZCDAudioConverter 3.0.3.2
#
DISCID=04105614
DTITLE=Luan Santana - Acustico
DYEAR=2015
DGENRE=Sertanejo
TTITLE0=01 – Escreve aí
TTITLE1=02 – Chuva de arroz
TTITLE2=03 – Vergonha na cara
TTITLE3=04 – Cantada
TTITLE4=05 – Um ser só
TTITLE5=06 – O recado
TTITLE6=07 – Eu não merecia isso
TTITLE7=08 – Café com leite
TTITLE8=09 – Conto de fadas
TTITLE9=10 – A outra
TTITLE10=11 – Falando sério
TTITLE11=12 – Sufoco
TTITLE12=13 – Meteoro
TTITLE13=14 – Um beijo
TTITLE14=15 – Amar não é pecado
TTITLE15=16 – Você não sabe o que é amor
TTITLE16=17 – Te esperando
TTITLE17=18 – Te vivo
TTITLE18=19 – Cê topa
TTITLE19=20 – Tudo o que você quiser
EXTD=
EXTT0=
EXTT1=
EXTT2=
EXTT3=
EXTT4=
EXTT5=
EXTT6=
EXTT7=
EXTT8=
EXTT9=
EXTT10=
EXTT11=
EXTT12=
EXTT13=
EXTT14=
EXTT15=
EXTT16=
EXTT17=
EXTT18=
EXTT19=
PLAYORDER=
